<?xml version="1.0" encoding="UTF-8"?>
<svg id="c" data-name="Layer 3" xmlns="http://www.w3.org/2000/svg" width="500" height="368.859" viewBox="0 0 500 368.859">
  <g>
    <g>
      <path d="m82.848,354.296c-7.275,0-13.771-2.001-19.86-6.116-5.212-3.523-7.552-8.228-7.153-14.381.427-6.588,1.969-12.962,3.461-19.125l.18-.745c.478-1.971.22-3.395-.981-5.441-6.519-11.101-14.357-22.705-24.671-36.518-5.095-6.824-7.6-13.834-7.659-21.433-.028-3.613-.044-5.603,1.361-7.028.745-.756,1.694-1.115,2.904-1.29-8.442-5.769-8.376-14.52-6.992-23.165.514-3.211,2.583-7.342,9.519-8.79,1.652-.345,3.308-.439,4.908-.53.725-.042,1.438-.082,2.136-.144-3.409-2.458-3.071-6.953-2.847-9.934.898-11.946,4.648-23.968,11.145-35.731,8.061-14.595,22.123-21.689,42.991-21.689.377,0,.752.002,1.13.006,11.37.13,21.926,4.128,31.373,11.884.573.47,1.103.891,1.601,1.271-.171-.593-.201-1.185-.093-1.774.359-1.947,2.081-3.03,3.345-3.674,5.219-2.663,10.396-4.013,15.39-4.013,3.433,0,6.876.634,10.233,1.885l.144.053c1.094.405,2.591.96,3.115,2.502.528,1.554-.359,2.97-.651,3.435-8.291,13.22-9.644,28.405-4.257,47.789.207.744.408,1.493.609,2.244.929,3.466,1.89,7.049,3.475,10.115,2.986,5.775.387,9.422-2.868,12.503-13.424,12.71-28.856,19.155-45.869,19.155-2.568,0-5.213-.147-7.861-.438-4.862-.534-10.237-1.485-14.364-5.635,9.964,14.322,12.664,30.485,8.02,48.227-2.315,8.846-7.825,16.219-13.436,22.869-.305.362-.644.683-.972.994-.292.277-.753.714-.921.98.02,0,.041,0,.064,0,.27,0,.611-.043.973-.089.451-.057.917-.116,1.405-.116.096,0,.189.002.282.007,1.605.083,3.265.104,4.869.124,5.396.068,10.976.139,16.382,2.448.276.118.566.222.856.328,5.384,1.957,4.322,5.346,3.869,6.793-1.213,3.881-3.813,4.696-5.78,4.696-.842,0-1.782-.143-2.875-.438-.886-.239-1.771-.482-2.656-.726-2.39-.657-4.859-1.337-7.295-1.901.652.276,1.312.538,1.972.8,2.473.981,5.028,1.997,7.334,3.751.854.65,3.041,2.312,1.935,4.765-.542,1.2-1.584,1.888-2.858,1.888-.858,0-1.623-.317-2.182-.549l-.16-.066c-1.681-.684-3.451-1.017-5.415-1.017-.339,0-.68.01-1.021.03-.752.043-1.206.115-1.48.188.2.132.428.268.597.369.247.148.49.295.716.444,2.847,1.88,6.296,3.026,10.855,3.607,3.936.501,6.514,2.931,7.074,6.664.633,4.197-3.282,5.555-5.164,6.207l-.265.092c-6.487,2.275-12.248,3.381-17.613,3.381Zm-31.625-106.521c.876,10.24,5.429,18.984,13.869,26.666.481.438.957.847,1.438,1.224-.032-.03-.065-.06-.099-.09-4.842-4.422-10.729-10.57-13.3-18.933-.897-2.92-1.413-5.941-1.908-8.867Zm29.111-15.033c.689.768,1.357,1.543,2.001,2.323-.617-.814-1.292-1.588-2.001-2.323Z" fill="#fbcccc"/>
      <path d="m91.289,144.237c.369,0,.737.002,1.107.006,11.278.129,21.364,4.236,30.127,11.43,1.148.943,2.327,1.86,3.562,2.683.306.204.638.297.968.297.487,0,.967-.203,1.346-.549.558-.508.281-1.257-.158-1.745-2.046-2.268-.633-3.634,1.313-4.628,4.721-2.409,9.54-3.794,14.48-3.794,3.128,0,6.305.556,9.536,1.759,1.499.558,2.903.993,1.611,3.053-9.843,15.695-9.218,32.374-4.49,49.387,1.2,4.317,2.203,8.812,4.235,12.741,2.337,4.521.644,7.187-2.467,10.133-12.788,12.108-27.528,18.607-44.494,18.607-2.5,0-5.047-.141-7.644-.426-5.941-.652-11.567-1.842-15.285-7.74-2.51-3.982-6.335-7.146-10.292-9.945-.989-.7-1.863-1.484-2.962-1.485-.465,0-.97.14-1.542.486.175,2.231,2.098,3.08,3.475,4.36,17.221,16.001,24.153,35.309,18.108,58.398-2.212,8.449-7.428,15.446-13.029,22.086-.994,1.178-3.009,2.317-2.246,4.108.396.93,1.126,1.157,1.946,1.157.781,0,1.644-.205,2.379-.205.061,0,.12.001.179.004,6.916.355,13.953-.411,20.568,2.414,2.021.863,4.716,1.128,3.603,4.684-.769,2.457-2.119,3.293-3.873,3.293-.72,0-1.509-.141-2.354-.369-3.37-.908-6.725-1.886-10.124-2.669-.488-.112-1.054-.233-1.591-.233-.805,0-1.542.271-1.841,1.248-.489,1.594,1.02,2.253,2.233,2.769,3.054,1.296,6.248,2.278,8.945,4.331.83.632,1.781,1.337,1.323,2.351-.241.534-.617.71-1.036.71-.521,0-1.108-.272-1.588-.467-1.999-.814-4.062-1.164-6.169-1.164-.377,0-.756.011-1.136.033-1.506.086-3.383.304-3.678,1.958-.233,1.305,1.399,1.966,2.522,2.708,3.57,2.358,7.584,3.398,11.705,3.923,3.148.401,4.933,2.201,5.35,4.977.403,2.684-2.272,3.469-4.114,4.115-5.702,2-11.368,3.269-16.95,3.269-6.381,0-12.652-1.657-18.741-5.773-4.471-3.022-6.637-7.026-6.277-12.594.432-6.674,2.035-13.102,3.589-19.53.652-2.697.143-4.635-1.201-6.923-7.493-12.761-15.95-24.857-24.793-36.702-4.471-5.989-7.201-12.626-7.262-20.251-.05-6.275.007-6.437,6.165-6.474-.008-1.607-.867-2.302-1.654-2.769-8.779-5.211-8.607-13.505-7.262-21.909.652-4.074,3.718-6.264,7.951-7.148,3.954-.825,8.203-.092,12.127-1.899-.313-.606-.42-1.068-.58-1.087-5.961-.713-6.138-4.442-5.763-9.43.943-12.542,4.977-24.188,10.901-34.915,8.875-16.07,24.24-20.655,41.241-20.656m9.609,69.399c-7.684,0-15.031-3.258-22.608-4.482,7.567,5.384,15.435,8.05,22.856,8.05,6.114,0,11.925-1.808,17.02-5.397,7.687-5.414,13.395-15.641,11.876-22.105-4.861,9.829-10.274,18.6-20.925,22.508-2.797,1.026-5.529,1.425-8.219,1.425m-27.996,66.619c-1.203-3.106-3.318-4.51-5.122-6.157-5.574-5.09-10.488-10.726-12.737-18.043-1.352-4.398-1.805-9.067-2.757-13.595-.183-.87-.34-2.156-1.571-2.156-.024,0-.048,0-.072.001-1.269.05-1.306,1.289-1.426,2.234-.123.969-.158,1.958-.128,2.935.373,12.315,5.705,22.298,14.658,30.446,2.377,2.164,5.083,4.121,9.156,4.336m18.387-140.018h0c-21.663,0-36.299,7.433-44.742,22.722-6.637,12.017-10.469,24.314-11.388,36.548-.16,2.13-.411,5.472.873,8.339-1.134.085-2.294.212-3.485.461-6.281,1.311-10.218,5.015-11.084,10.432-.848,5.299-2.494,15.585,5.122,22.926-.166.135-.327.282-.484.44-1.988,2.016-1.968,4.575-1.938,8.449.064,8.04,2.699,15.437,8.056,22.613,10.269,13.754,18.07,25.3,24.55,36.334.945,1.609,1.116,2.496.762,3.958l-.178.735c-1.513,6.249-3.077,12.711-3.515,19.476-.441,6.827,2.26,12.266,8.029,16.166,6.341,4.286,13.4,6.46,20.981,6.46,5.594,0,11.572-1.143,18.274-3.494l.258-.09c1.822-.632,7.365-2.554,6.487-8.394-.659-4.385-3.662-7.421-8.09-8.24.767-.524,1.391-1.271,1.81-2.198.595-1.318.868-3.132-.464-5.077.076.002.151.003.227.003,2.159,0,6.03-.792,7.69-6.099,1.08-3.451-.018-5.658-1.129-6.902-1.225-1.372-2.811-1.948-3.968-2.369-.254-.092-.51-.183-.752-.287-5.77-2.464-11.551-2.538-17.141-2.609-1.026-.013-2.017-.026-2.995-.052,5.331-6.455,10.389-13.623,12.637-22.21,4.051-15.474,2.703-29.779-3.993-42.753,2.713.937,5.521,1.349,8.185,1.641,2.72.298,5.439.45,8.081.45,17.541,0,33.437-6.629,47.244-19.703,2.202-2.085,7.358-6.967,3.27-14.875-1.485-2.872-2.376-6.193-3.319-9.709-.203-.758-.406-1.515-.615-2.266-5.226-18.803-3.947-33.48,4.024-46.191,1.118-1.783,1.404-3.513.85-5.142-.831-2.442-3.096-3.282-4.313-3.733l-.14-.052c-3.582-1.334-7.26-2.011-10.932-2.011-5.311,0-10.795,1.424-16.298,4.231-.765.39-2.795,1.426-3.849,3.472-9.507-7.434-20.078-11.267-31.445-11.397-.386-.004-.769-.007-1.153-.007h0Z" fill="#231f20"/>
    </g>
    <path d="m78.29,209.154c10.229,1.652,20.042,7.013,30.827,3.056,10.651-3.907,16.064-12.679,20.925-22.508,1.519,6.464-4.189,16.691-11.876,22.105-11.279,7.944-26.075,7.166-39.876-2.654Z" fill="#181e19"/>
    <path d="m72.902,280.255c-4.073-.215-6.778-2.172-9.155-4.336-8.954-8.148-14.286-18.131-14.658-30.446-.03-.977.005-1.966.128-2.935.12-.945.157-2.184,1.426-2.234,1.298-.051,1.457,1.269,1.643,2.155.952,4.527,1.405,9.197,2.757,13.595,2.249,7.318,7.163,12.953,12.737,18.043,1.804,1.647,3.919,3.051,5.122,6.157Z" fill="#181e19"/>
  </g>
  <g>
    <g>
      <path d="m406.81,246.695c-4.369,0-8.981-.469-14.098-1.434-11.175-2.107-20.873-7.881-28.827-17.163-.488-.57-.934-1.074-1.354-1.531.065.614-.007,1.203-.217,1.764-.693,1.855-2.577,2.621-3.934,3.036-3.722,1.138-7.335,1.715-10.741,1.715-5.258,0-10.258-1.372-14.861-4.079l-.131-.077c-1.007-.589-2.385-1.396-2.633-3.005-.25-1.623.871-2.862,1.239-3.27,10.465-11.575,14.438-26.293,12.507-46.319-.073-.769-.142-1.542-.209-2.316-.312-3.574-.635-7.27-1.661-10.564-1.937-6.207,1.259-9.346,5-11.814,11.953-7.885,24.482-11.884,37.24-11.884,6.192,0,12.561.943,18.928,2.803,4.695,1.372,9.824,3.244,13.165,8.049-7.319-15.837-7.166-32.224.495-48.888,3.82-8.308,10.529-14.609,17.21-20.182.363-.303.754-.561,1.131-.81.336-.222.868-.573,1.078-.806-.272-.055-.735-.077-1.038-.092-.519-.025-1.106-.054-1.68-.186-1.568-.361-3.199-.671-4.776-.97-5.301-1.006-10.782-2.047-15.704-5.261-.251-.164-.519-.317-.785-.471-4.962-2.864-3.327-6.017-2.629-7.364,1.28-2.471,3.082-3.724,5.355-3.724,1.158,0,2.4.33,3.909,1.037.833.39,1.664.785,2.496,1.18,2.236,1.062,4.549,2.161,6.846,3.139-.596-.386-1.2-.758-1.804-1.131-2.263-1.396-4.603-2.84-6.567-4.969-.731-.792-2.592-2.809-1.075-5.03.621-.911,1.534-1.412,2.569-1.412,1.105,0,2.021.585,2.627.972l.146.092c1.794,1.129,3.812,1.813,6.165,2.091.354.042.764.084,1.139.084.139,0,.254-.006.349-.015-.174-.164-.372-.335-.52-.463-.218-.188-.432-.375-.628-.561-2.476-2.347-5.672-4.076-10.062-5.442-3.787-1.178-5.904-4.018-5.807-7.792.108-4.243,4.2-4.899,6.166-5.214l.276-.044c3.716-.609,7.08-.905,10.285-.905,10.559,0,19.108,3.311,26.141,10.12,4.519,4.375,6.004,9.415,4.542,15.405-1.567,6.416-4.196,12.424-6.737,18.235l-.306.699c-.813,1.857-.808,3.304.02,5.528,4.485,12.062,10.186,24.853,17.939,40.254,3.829,7.607,5.076,14.947,3.812,22.438-.756,4.489-1.256,7.454-5.342,7.454-.1,0-.201-.001-.305-.005,7.31,7.149,5.721,15.755,2.854,24.028-1.065,3.073-3.821,6.781-10.902,7-.188.006-.375.008-.562.008-1.49,0-2.951-.173-4.363-.34-.728-.086-1.435-.17-2.13-.23,2.93,3.013,1.815,7.381,1.075,10.277-2.963,11.608-8.747,22.793-17.192,33.247-8.212,10.166-19.047,15.107-33.123,15.107Zm11.98-91.092c.469.914,1.001,1.798,1.574,2.65-.548-.881-1.073-1.765-1.574-2.65Zm22.715-37.116c3.999,5.197,8.727,12.275,9.802,20.958.377,3.032.359,6.097.337,9.064.92-10.236-2.042-19.639-9.018-28.672-.398-.515-.796-1.002-1.204-1.457.028.036.056.072.083.108Z" fill="#fbcccc"/>
      <path d="m431.391,39.469c9.037,0,17.469,2.506,24.749,9.556,3.877,3.754,5.313,8.074,3.99,13.494-1.586,6.497-4.284,12.548-6.933,18.607-1.111,2.542-.947,4.54-.022,7.027,5.158,13.87,11.381,27.253,18.028,40.456,3.361,6.676,4.894,13.687,3.627,21.206-.753,4.466-1.006,5.787-3.371,5.787-.912,0-2.137-.196-3.826-.484-.272,1.584.453,2.418,1.147,3.014,7.738,6.659,6.125,14.796,3.338,22.838-1.351,3.898-4.751,5.522-9.074,5.655-.167.005-.335.008-.503.008-2.756,0-5.523-.658-8.334-.658-1.137,0-2.282.108-3.436.411.203.651.228,1.125.382,1.172,5.746,1.739,5.272,5.442,4.034,10.289-3.111,12.187-9.111,22.953-16.811,32.485-8.582,10.624-19.597,14.364-31.567,14.364-4.469,0-9.069-.521-13.728-1.399-11.083-2.09-20.301-7.89-27.678-16.498-.967-1.128-1.968-2.236-3.041-3.262-.351-.335-.78-.488-1.214-.488-.382,0-.768.118-1.108.333-.638.403-.496,1.189-.147,1.746,1.62,2.59-.009,3.689-2.099,4.328-3.427,1.048-6.816,1.628-10.156,1.628-4.728,0-9.356-1.162-13.848-3.803-1.379-.811-2.686-1.483-1.055-3.287,12.424-13.743,14.711-30.276,13.015-47.852-.43-4.46-.636-9.061-1.953-13.284-1.515-4.859.616-7.189,4.193-9.549,11.453-7.556,23.483-11.553,36.139-11.553,5.981,0,12.1.892,18.367,2.723,5.737,1.676,11.07,3.827,13.705,10.282,1.779,4.358,4.995,8.14,8.404,11.584.957.967,1.751,2.013,3.073,2.013.354,0,.746-.075,1.188-.247.216-2.227-1.53-3.398-2.663-4.898-14.174-18.754-17.64-38.974-7.67-60.658,3.648-7.935,10.003-13.918,16.674-19.481,1.184-.987,3.366-1.758,2.927-3.654-.463-1.999-2.784-1.383-4.269-1.725-6.749-1.553-13.812-2.024-19.834-5.956-1.84-1.202-4.448-1.931-2.733-5.24.996-1.922,2.197-2.644,3.581-2.644.938,0,1.961.332,3.06.847,3.161,1.481,6.294,3.027,9.505,4.39.607.257,1.347.553,2.024.553.608,0,1.166-.238,1.532-.955.759-1.485-.612-2.397-1.718-3.115-2.781-1.808-5.757-3.331-8.055-5.821-.707-.767-1.521-1.626-.894-2.546.27-.395.587-.54.918-.54.579,0,1.205.441,1.708.757,2.155,1.355,4.508,2.091,6.996,2.385.438.052.91.098,1.373.098,1.117,0,2.181-.27,2.59-1.386.457-1.244-1.035-2.18-2.012-3.106-3.105-2.944-6.876-4.666-10.844-5.9-3.031-.943-4.474-3.026-4.402-5.832.07-2.713,2.841-3.02,4.767-3.336,3.381-.554,6.711-.879,9.961-.879m19.756,116.513c1.06,0,1.297-1.117,1.562-1.968.29-.932.496-1.9.637-2.868,1.776-12.192-1.737-22.951-9.136-32.533-1.965-2.544-4.288-4.943-8.261-5.863.644,3.268,2.482,5.019,3.972,6.955,4.603,5.982,8.461,12.387,9.403,19.984.566,4.566.199,9.243.349,13.867.029.905-.044,2.233,1.243,2.408.081.011.158.016.231.016m-87.225,35.996c6.497-8.833,13.354-16.529,24.523-18.523,1.386-.247,2.735-.36,4.05-.36,9.416,0,17.188,5.744,25.774,8.734-8.066-8.195-17.311-12.366-26.323-12.367-4.263,0-8.473.933-12.483,2.814-8.512,3.993-15.912,13.071-15.542,19.701m67.472-156.509v4-4h-.002c-3.315,0-6.785.305-10.608.931l-.27.044c-1.904.305-7.697,1.234-7.849,7.137-.114,4.435,2.316,7.949,6.539,9.524-.854.385-1.602,1.014-2.17,1.847-.815,1.194-1.4,2.933-.427,5.079-.591-.119-1.162-.177-1.725-.177-2.118,0-5.075.833-7.132,4.803-1.664,3.21-.967,5.574-.089,6.993.968,1.565,2.429,2.408,3.495,3.023.235.135.47.269.691.413,5.253,3.431,10.933,4.509,16.425,5.552,1.008.191,1.982.376,2.94.573-6.374,5.429-12.602,11.608-16.31,19.672-6.682,14.533-7.844,28.854-3.508,42.795-2.509-1.395-5.202-2.289-7.774-3.04-6.55-1.913-13.107-2.883-19.489-2.883-13.157,0-26.057,4.11-38.342,12.215-2.531,1.67-8.458,5.58-5.809,14.078.962,3.087,1.262,6.512,1.579,10.139.068.782.136,1.562.211,2.338,1.874,19.426-1.94,33.657-12.001,44.786-1.411,1.561-1.994,3.215-1.731,4.915.393,2.55,2.478,3.771,3.598,4.427l.129.076c4.916,2.89,10.257,4.355,15.875,4.355,3.604,0,7.414-.607,11.325-1.803.822-.251,3-.918,4.395-2.749,8.067,8.974,17.811,14.589,28.981,16.695,5.241.988,9.974,1.469,14.469,1.469,14.515,0,26.182-5.333,34.679-15.85,8.627-10.679,14.54-22.121,17.575-34.009.529-2.07,1.357-5.317.592-8.364.934.094,1.893.162,2.885.162.209,0,.418-.003.626-.009,6.413-.198,10.934-3.161,12.73-8.343,1.755-5.065,5.159-14.889-1.031-23.436,2.75-1.495,3.336-4.973,3.908-8.364,1.337-7.929.029-15.671-3.998-23.67-7.718-15.331-13.391-28.057-17.852-40.052-.65-1.749-.664-2.652-.062-4.03l.305-.696c2.577-5.89,5.241-11.98,6.849-18.564,1.623-6.646-.091-12.472-5.093-17.317-7.423-7.189-16.428-10.683-27.53-10.683h0Z" fill="#231f20"/>
    </g>
    <path d="m418.269,181.83c-9.786-3.407-18.516-10.394-29.825-8.374-11.169,1.994-18.026,9.69-24.523,18.523-.371-6.63,7.03-15.708,15.542-19.701,12.49-5.859,26.924-2.519,38.806,9.552Z" fill="#181e19"/>
    <path d="m435.948,112.751c3.973.92,6.297,3.318,8.261,5.863,7.399,9.582,10.912,20.34,9.136,32.532-.141.967-.347,1.935-.637,2.868-.283.91-.534,2.123-1.793,1.951-1.287-.175-1.214-1.503-1.243-2.408-.15-4.624.217-9.301-.349-13.867-.941-7.597-4.8-14.002-9.403-19.984-1.49-1.936-3.328-3.687-3.972-6.955Z" fill="#181e19"/>
  </g>
  <g>
    <g>
      <path d="m290.417,130.298l-59.954,27.402c-2.9,1.325-5.225,3.651-6.55,6.55l-27.402,59.954c-3.161,6.916,3.963,14.044,10.883,10.883l59.954-27.402c2.9-1.325,5.225-3.651,6.55-6.55l27.402-59.954c3.161-6.92-3.963-14.044-10.883-10.883h0Zm-32.133,61.773c-5.18,5.18-13.578,5.18-18.758,0-5.18-5.18-5.18-13.578,0-18.758,5.18-5.18,13.578-5.18,18.758,0,5.18,5.18,5.18,13.578,0,18.758Zm-9.379-112.39c-56.893,0-103.011,46.118-103.011,103.011s46.118,103.011,103.011,103.011,103.011-46.118,103.011-103.011-46.118-103.011-103.011-103.011Zm0,186.084c-45.807,0-83.073-37.267-83.073-83.073s37.267-83.073,83.073-83.073,83.073,37.267,83.073,83.073-37.267,83.073-83.073,83.073Z" fill="#394152"/>
      <path d="m290.417,130.298l-59.954,27.402c-2.9,1.325-5.225,3.651-6.55,6.55l-27.402,59.954c-3.161,6.916,3.963,14.044,10.883,10.883l59.954-27.402c2.9-1.325,5.225-3.651,6.55-6.55l27.402-59.954c3.161-6.92-3.963-14.044-10.883-10.883h0Zm-32.133,61.773c-5.18,5.18-13.578,5.18-18.758,0-5.18-5.18-5.18-13.578,0-18.758,5.18-5.18,13.578-5.18,18.758,0s5.18,13.578,0,18.758Z" fill="#394152"/>
    </g>
    <ellipse cx="172.354" cy="79.681" rx="36.598" ry="26.191" fill="none" stroke="#394152" stroke-miterlimit="10" stroke-width="12.689"/>
    <circle cx="172.354" cy="78.016" r="11.851" fill="#394150"/>
    <ellipse cx="320.475" cy="76.846" rx="36.598" ry="28.127" fill="none" stroke="#394152" stroke-miterlimit="10" stroke-width="13.15"/>
    <circle cx="321.746" cy="75.77" r="11.851" fill="#394150"/>
    <path d="m215.385,58.972l-50.162-39.793c-.478-.379-.558-1.075-.179-1.553.34-.428.932-.537,1.396-.283l56.207,30.667c3.199,1.746,4.378,5.754,2.632,8.954s-5.754,4.378-8.954,2.632c-.325-.177-.658-.402-.94-.623Z" fill="#394152"/>
    <path d="m264.478,52.932l52.108-37.207c.497-.355,1.188-.24,1.542.257.317.445.258,1.044-.113,1.42l-45.009,45.54c-2.562,2.592-6.74,2.617-9.333.055-2.592-2.562-2.617-6.74-.055-9.333.26-.264.568-.521.859-.732Z" fill="#394152"/>
  </g>
</svg>